<svg xmlns="http://www.w3.org/2000/svg" version="1.1" xmlns:xlink="http://www.w3.org/1999/xlink" xmlns:svgjs="http://svgjs.dev/svgjs" width="100%" height="100%" viewBox="0 0 1000 600"><rect width="1000" height="600" x="0" y="0" fill="#A2EE"/><g><circle r="166.66666666666666" cx="374.7058664957682" cy="396.92811606743055" fill="#a04ef6" transform="matrix(0.6008481699508437,0,0,0.6008481699508438,0,61.506458712202814)"/><path d="M425.87098621934734 416.2129524956063L425.87098621934734 461.3515600269586Q425.87098621934734 462.70752620780695 425.5997929831777 464.5154811156048Q425.328599747008 466.3234360234026 424.2136942205327 467.95059544042067Q423.0987886940574 469.60788743923536 420.98950796829325 470.7529255475073Q418.88022724252914 471.9280962375759 415.2643174269335 471.9280962375759L415.2643174269335 471.9280962375759Q411.25668404798165 471.9280962375759 408.9063426678445 470.81319071110056Q406.58613386950395 469.6982851846252 405.3506980158421 468.0711257676072Q404.14539474397685 466.41383376879253 403.78380376241734 464.6360114427913Q403.3920801990611 462.8280565349935 403.3920801990611 461.3515600269586L403.3920801990611 461.3515600269586L403.3920801990611 454.9935852678696Q398.3298064572272 462.49659813523056 390.43507002651006 467.2274134773015Q382.5403335957929 471.9280962375759 370.9995547676835 471.9280962375759L370.9995547676835 471.9280962375759Q368.9806717873093 471.9280962375759 364.7319777539844 471.62677041960956Q360.51341630245616 471.2953120198466 355.2100819062492 469.9092132572016Q349.90674751004224 468.5532470763533 344.302087295869 465.7810495510633Q338.6672944998991 463.0389846075699 334.0570094850147 458.0972411929225Q329.47685705192686 453.1856303600718 326.4937314540604 445.83328040169397Q323.5407384379907 438.45079786151956 323.5407384379907 427.87426165090227L323.5407384379907 427.87426165090227L323.5407384379907 368.5432080933371Q323.5407384379907 359.8650245359076 325.6500191637548 353.17559137705564Q327.7592998895189 346.5162908000003 331.2245467961314 341.57454738535296Q334.6596611209473 336.6629365525022 339.0891506450519 333.3182199730762Q343.5487727509532 329.9735033936503 348.2193229294309 327.74369234069957L348.2193229294309 327.74369234069957Q359.0067872126246 322.68141859886566 372.8979074208712 321.92810405394994L372.8979074208712 321.92810405394994Q384.64961432155707 321.92810405394994 393.0264720610203 324.57977125205343Q401.4033298004835 327.2314384501569 407.2189180872332 331.44999990168515Q413.0345063739828 335.69869393501 416.52988586239195 341.0622934948102Q420.0252653508011 346.3957604728138 421.95375058578543 351.91002294159716Q423.85210323897314 357.4242854103805 424.4246222931091 362.4865591522144Q425.0272739290417 367.57896547584494 425.0272739290417 371.28527303683046L425.0272739290417 371.28527303683046Q425.0272739290417 372.8822998720519 424.75608069287205 375.1723760885958Q424.4848874567024 377.4323197233431 422.88786062148097 379.51146786731056Q421.3209663680562 381.56048342948145 417.8557194614437 383.0068473557197Q414.42060513662784 384.4230787001613 408.0626303775388 384.4230787001613L408.0626303775388 384.4230787001613Q405.8328193245882 384.4230787001613 402.6086330723487 384.1518854639916Q399.3844468201093 383.9108248096186 396.40132122224287 382.8260518649399Q393.44832820617313 381.77141150205784 391.33904748040896 379.72239593988695Q389.1996341728482 377.6432477959195 389.1996341728482 374.05747056212044L389.1996341728482 374.05747056212044Q389.1996341728482 368.33228002076066 388.50658479152577 363.81239275126615Q387.8436679919999 359.3226380635682 386.03571308420203 356.158716974922Q384.2277581764042 352.9646633044792 381.06383708775803 351.33750388746114Q377.8697834173152 349.6802118886465 372.8979074208712 349.6802118886465L372.8979074208712 349.6802118886465Q367.7151033518508 349.6802118886465 364.9127732447642 351.7894926144106Q362.0803105558809 353.92890592197136 360.8147421204224 356.4600427928883L360.8147421204224 356.4600427928883Q359.33824561238754 359.44316839075475 359.12731753981114 363.2398736971302L359.12731753981114 363.2398736971302L359.12731753981114 431.03818273954846Q359.12731753981114 434.44316448256774 360.33262081167635 437.3961574986375Q361.5680566653382 440.3491505147073 363.79786771828884 442.57896156765787Q365.99754618944286 444.8087726206086 369.0409369509025 446.07434105606706Q372.0541951305656 447.33990949152553 375.63997236436455 447.33990949152553L375.63997236436455 447.33990949152553Q379.88866639768946 447.33990949152553 383.3237807225053 445.50182200193103Q386.7588950473212 443.63360193053995 389.53109257261116 440.52994600548703Q392.2731575161045 437.3961574986375 394.44270340546194 433.4186567014823Q396.6122492948193 429.44115590432705 398.3298064572272 425.1020641256123L398.3298064572272 425.1020641256123L388.1449938099662 425.1020641256123Q385.07147046670985 424.800738307646 382.7512616683693 423.5050372903909L382.7512616683693 423.5050372903909Q380.64198094260524 422.4503969275088 378.98468894379056 420.3411162017447Q377.3575295267725 418.2318354759806 377.3575295267725 414.52552791499505L377.3575295267725 414.52552791499505Q377.3575295267725 410.4877619542466 378.98468894379056 408.31821606488916Q380.64198094260524 406.1486701755318 382.7512616683693 405.09402981264975L382.7512616683693 405.09402981264975Q385.07147046670985 403.9188591225811 388.1449938099662 403.70793105000473L388.1449938099662 403.70793105000473L415.6861735720863 403.70793105000473Q416.4394881170021 403.70793105000473 418.0666475340201 403.9791242861744Q419.7239395328348 404.25031752234406 421.4716292770393 405.51588595780254Q423.2193190212439 406.781454393261 424.54515262029565 409.2824586823814Q425.87098621934734 411.75333038970507 425.87098621934734 416.2129524956063L425.87098621934734 416.2129524956063Z " fill="#E7D01" transform="matrix(0.6008481699508437,0,0,0.6008481699508438,0,61.506458712202814)"/><path d="M727.036109205187 416.2129524956063L727.036109205187 461.3515600269586Q727.036109205187 462.70752620780695 726.7649159690175 464.5154811156048Q726.4937227328477 466.3234360234026 725.3788172063724 467.95059544042067Q724.2639116798971 469.60788743923536 722.1546309541329 470.7529255475073Q720.0453502283688 471.9280962375759 716.4294404127733 471.9280962375759L716.4294404127733 471.9280962375759Q712.4218070338214 471.9280962375759 710.0714656536842 470.81319071110056Q707.7512568553436 469.6982851846252 706.5158210016817 468.0711257676072Q705.3105177298165 466.41383376879253 704.948926748257 464.6360114427913Q704.5572031849008 462.8280565349935 704.5572031849008 461.3515600269586L704.5572031849008 461.3515600269586L704.5572031849008 454.9935852678696Q699.494929443067 462.49659813523056 691.6001930123498 467.2274134773015Q683.7054565816326 471.9280962375759 672.1646777535232 471.9280962375759L672.1646777535232 471.9280962375759Q670.145794773149 471.9280962375759 665.897100739824 471.62677041960956Q661.6785392882958 471.2953120198466 656.3752048920888 469.9092132572016Q651.071870495882 468.5532470763533 645.4672102817086 465.7810495510633Q639.8324174857388 463.0389846075699 635.2221324708544 458.0972411929225Q630.6419800377665 453.1856303600718 627.6588544399002 445.83328040169397Q624.7058614238304 438.45079786151956 624.7058614238304 427.87426165090227L624.7058614238304 427.87426165090227L624.7058614238304 368.5432080933371Q624.7058614238304 359.8650245359076 626.8151421495945 353.17559137705564Q628.9244228753586 346.5162908000003 632.3896697819711 341.57454738535296Q635.824784106787 336.6629365525022 640.2542736308916 333.3182199730762Q644.713895736793 329.9735033936503 649.3844459152707 327.74369234069957L649.3844459152707 327.74369234069957Q660.1719101984644 322.68141859886566 674.0630304067109 321.92810405394994L674.0630304067109 321.92810405394994Q685.8147373073967 321.92810405394994 694.19159504686 324.57977125205343Q702.5684527863233 327.2314384501569 708.3840410730728 331.44999990168515Q714.1996293598226 335.69869393501 717.6950088482316 341.0622934948102Q721.1903883366408 346.3957604728138 723.1188735716252 351.91002294159716Q725.0172262248128 357.4242854103805 725.5897452789488 362.4865591522144Q726.1923969148814 367.57896547584494 726.1923969148814 371.28527303683046L726.1923969148814 371.28527303683046Q726.1923969148814 372.8822998720519 725.9212036787118 375.1723760885958Q725.6500104425421 377.4323197233431 724.0529836073207 379.51146786731056Q722.4860893538959 381.56048342948145 719.0208424472834 383.0068473557197Q715.5857281224676 384.4230787001613 709.2277533633786 384.4230787001613L709.2277533633786 384.4230787001613Q706.9979423104279 384.4230787001613 703.7737560581885 384.1518854639916Q700.549569805949 383.9108248096186 697.5664442080825 382.8260518649399Q694.6134511920128 381.77141150205784 692.5041704662486 379.72239593988695Q690.3647571586879 377.6432477959195 690.3647571586879 374.05747056212044L690.3647571586879 374.05747056212044Q690.3647571586879 368.33228002076066 689.6717077773654 363.81239275126615Q689.0087909778396 359.3226380635682 687.2008360700418 356.158716974922Q685.392881162244 352.9646633044792 682.2289600735977 351.33750388746114Q679.0349064031549 349.6802118886465 674.0630304067109 349.6802118886465L674.0630304067109 349.6802118886465Q668.8802263376905 349.6802118886465 666.0778962306039 351.7894926144106Q663.2454335417207 353.92890592197136 661.9798651062621 356.4600427928883L661.9798651062621 356.4600427928883Q660.5033685982272 359.44316839075475 660.2924405256508 363.2398736971302L660.2924405256508 363.2398736971302L660.2924405256508 431.03818273954846Q660.2924405256508 434.44316448256774 661.497743797516 437.3961574986375Q662.7331796511779 440.3491505147073 664.9629907041285 442.57896156765787Q667.1626691752825 444.8087726206086 670.2060599367422 446.07434105606706Q673.2193181164052 447.33990949152553 676.8050953502043 447.33990949152553L676.8050953502043 447.33990949152553Q681.0537893835291 447.33990949152553 684.488903708345 445.50182200193103Q687.9240180331609 443.63360193053995 690.6962155584508 440.52994600548703Q693.4382805019442 437.3961574986375 695.6078263913016 433.4186567014823Q697.777372280659 429.44115590432705 699.494929443067 425.1020641256123L699.494929443067 425.1020641256123L689.3101167958058 425.1020641256123Q686.2365934525495 424.800738307646 683.9163846542091 423.5050372903909L683.9163846542091 423.5050372903909Q681.8071039284449 422.4503969275088 680.1498119296302 420.3411162017447Q678.5226525126121 418.2318354759806 678.5226525126121 414.52552791499505L678.5226525126121 414.52552791499505Q678.5226525126121 410.4877619542466 680.1498119296302 408.31821606488916Q681.8071039284449 406.1486701755318 683.9163846542091 405.09402981264975L683.9163846542091 405.09402981264975Q686.2365934525495 403.9188591225811 689.3101167958058 403.70793105000473L689.3101167958058 403.70793105000473L716.851296557926 403.70793105000473Q717.6046111028418 403.70793105000473 719.2317705198599 403.9791242861744Q720.8890625186745 404.25031752234406 722.636752262879 405.51588595780254Q724.3844420070836 406.781454393261 725.7102756061354 409.2824586823814Q727.036109205187 411.75333038970507 727.036109205187 416.2129524956063L727.036109205187 416.2129524956063ZM744.1815482474698 431.24911081212485L744.1815482474698 404.9734994854632Q744.1815482474698 395.2406755651516 746.8332154455733 388.46084466090974Q749.4848826436767 381.68101375666794 753.6733115134083 377.1309939053768Q757.8617403831399 372.55084147228894 762.9842792885671 370.019704601372Q768.1369507757909 367.48856773045503 773.1088267722348 366.22299929499655Q778.080702768679 364.92729827774144 782.389661965597 364.6259724597752Q786.6684885807185 364.29451406001226 789.1092277062456 364.29451406001226L789.1092277062456 364.29451406001226Q791.5499668317727 364.29451406001226 795.768528283301 364.6259724597752Q800.0172223166257 364.92729827774144 804.8384354040867 366.22299929499655Q809.6596484915475 367.48856773045503 814.5712593243983 370.019704601372Q819.5130027390456 372.55084147228894 823.4905035362009 377.1309939053768Q827.468004333356 381.68101375666794 829.999141204273 388.46084466090974Q832.5302780751899 395.2406755651516 832.5302780751899 404.9734994854632L832.5302780751899 404.9734994854632L832.5302780751899 431.24911081212485Q832.5302780751899 441.0120673142331 829.999141204273 447.79189821847496Q827.468004333356 454.57172912271676 823.4905035362009 459.12174897400797Q819.5130027390456 463.6717688252992 814.5712593243983 466.20290569621613Q809.6596484915475 468.76417514892967 804.8384354040867 470.02974358438814Q800.0172223166257 471.2953120198466 795.768528283301 471.62677041960956Q791.5499668317727 471.9280962375759 789.1092277062456 471.9280962375759L789.1092277062456 471.9280962375759Q786.6684885807185 471.9280962375759 782.389661965597 471.62677041960956Q778.080702768679 471.2953120198466 773.1088267722348 470.02974358438814Q768.1369507757909 468.76417514892967 762.9842792885671 466.20290569621613Q757.8617403831399 463.6717688252992 753.6733115134083 459.12174897400797Q749.4848826436767 454.57172912271676 746.8332154455733 447.79189821847496Q744.1815482474698 441.0120673142331 744.1815482474698 431.24911081212485L744.1815482474698 431.24911081212485ZM776.8151343332204 400.33308188878215L776.8151343332204 438.66172593409595Q776.9356646604069 441.73524927735224 778.2916308412553 444.08559065748943L778.2916308412553 444.08559065748943Q779.4668015313239 446.19487138325354 781.9678058204443 447.8220308002716Q784.4386775277679 449.4793227990863 789.1092277062456 449.4793227990863L789.1092277062456 449.4793227990863Q793.5688498121469 449.4793227990863 795.9493237740808 447.8220308002716Q798.3297977360145 446.19487138325354 799.4748358442864 444.08559065748943L799.4748358442864 444.08559065748943Q800.7705368615416 441.73524927735224 800.981464934118 438.66172593409595L800.981464934118 438.66172593409595L800.981464934118 400.33308188878215Q800.7705368615416 397.1390282183393 799.4748358442864 394.4873610202358L799.4748358442864 394.4873610202358Q798.3297977360145 392.3780802944717 795.9493237740808 390.50986022308064Q793.5688498121469 388.6717727334862 789.1092277062456 388.6717727334862L789.1092277062456 388.6717727334862Q784.4386775277679 388.6717727334862 781.9678058204443 390.50986022308064Q779.4668015313239 392.3780802944717 778.2916308412553 394.4873610202358L778.2916308412553 394.4873610202358Q776.9356646604069 397.1390282183393 776.8151343332204 400.33308188878215L776.8151343332204 400.33308188878215ZM868.146989758807 365.1382263503179L910.0915436197165 365.1382263503179Q913.0445366357862 365.1382263503179 916.5399161241953 365.6806128226572Q920.0352956126045 366.22299929499655 922.9581560468775 367.6392306394382Q925.8810164811508 369.0554619838798 927.8396342979318 371.67699660018667Q929.7982521147128 374.26839863469684 929.7982521147128 378.2760320136487L929.7982521147128 378.2760320136487Q929.7982521147128 380.0839869214465 929.1956004787801 381.89194182924433Q928.6230814246442 383.6998967370422 927.7793691343386 385.53798422663664Q926.9356568440329 387.4062042980277 925.9111490629475 389.1840266240289Q924.9167738636586 390.99198153182675 924.073061573353 392.679406112438L924.073061573353 392.679406112438L887.1907814542774 444.1759884028793L910.5133997648693 444.1759884028793Q914.2197073258549 444.1759884028793 917.7753519778572 444.53757938443886Q921.300864048063 444.92930294779507 924.073061573353 446.28526912864345Q926.8151265168464 447.67136789128847 928.5025510974576 450.3230350893919Q930.2201082598656 452.97470228749535 930.2201082598656 457.52472213878656L930.2201082598656 457.52472213878656Q930.2201082598656 461.9843442446878 928.5025510974576 464.666144024588Q926.8151265168464 467.3780763862847 924.073061573353 468.79430773072636Q921.300864048063 470.24067165696454 917.7753519778572 470.66252780211744Q914.2197073258549 471.0843839472702 910.5133997648693 471.0843839472702L910.5133997648693 471.0843839472702L868.7797739765363 471.0843839472702Q865.5857203060934 471.0843839472702 862.0903408176844 470.66252780211744Q858.5949613292752 470.24067165696454 855.6419683132054 468.8545728943196Q852.658842715339 467.4684741316746 850.7604900621513 464.93733726075766Q848.8621374089637 462.4062003898407 848.8621374089637 458.1575063565158L848.8621374089637 458.1575063565158Q848.8621374089637 454.36080105014037 850.7002248985581 450.53396316196836Q852.5684449699492 446.70712527379624 854.7982560228997 443.5432041851501L854.7982560228997 443.5432041851501L891.4394754876023 391.8356938221324L868.146989758807 391.8356938221324Q864.4406821978215 391.8356938221324 860.9453027094123 391.4741028405728Q857.4197906392067 391.11251185901324 854.61746053212 389.7264130963682Q851.8151304250334 388.34031433372326 850.127705844422 385.74891229921303Q848.4402812638108 383.1575102647028 848.4402812638108 378.69788815880156L848.4402812638108 378.69788815880156Q848.4402812638108 374.14786830751035 850.127705844422 371.4962011094069Q851.8151304250334 368.8445339113034 854.61746053212 367.42830256686176Q857.4197906392067 365.9819386406235 860.9453027094123 365.5600824954707Q864.4406821978215 365.1382263503179 868.146989758807 365.1382263503179L868.146989758807 365.1382263503179ZM1036.9798455653272 404.1297871951576L1036.9798455653272 410.698690026823Q1036.9798455653272 412.38611460743425 1036.7689174927505 414.6761908239782Q1036.5579894201742 416.9662670405221 1035.1417580757325 419.015282602693Q1033.6953941494944 421.09443074666046 1030.6520033880347 422.57092725469533Q1027.5784800447782 424.0474237627302 1021.9436872488084 424.0474237627302L1021.9436872488084 424.0474237627302L979.7882053153226 424.0474237627302L979.7882053153226 434.2322364099913Q979.7882053153226 436.76337328090824 980.4209895330519 439.5054382244016Q981.0537737507809 442.2776357496916 982.5905354224092 444.5978445480321Q984.1272970940373 446.9180533463727 986.6885665467508 448.4246824362042Q989.2197034176678 449.90117894423906 992.9260109786534 449.90117894423906L992.9260109786534 449.90117894423906Q997.1747050119782 449.90117894423906 999.4346486467256 448.8766711631537Q1001.7247248632694 447.88229596386486 1003.0505584623211 446.40579945583Q1004.3763920613728 444.92930294779507 1005.4310324242549 443.21174578538717Q1006.485672787137 441.52432120477584 1008.2333625313415 440.0478246967409Q1009.9810522755462 438.57132818870605 1013.1148407823957 437.54682040762066Q1016.2184967074486 436.55244520833185 1021.7327591762321 436.55244520833185L1021.7327591762321 436.55244520833185Q1024.3844263743354 436.55244520833185 1026.8854306634557 436.97430135348463Q1029.3563023707798 437.3961574986375 1031.284787605764 438.57132818870605Q1033.1831402589514 439.71636629697804 1034.35831094902 441.7955144409455Q1035.5033490572923 443.84453000311635 1035.5033490572923 447.1289814189491L1035.5033490572923 447.1289814189491Q1035.5033490572923 454.02934265037743 1031.1642572785772 458.63962766526186Q1026.8251654998626 463.24991268014634 1020.2562626681971 465.9919776236397Q1013.6873598365316 468.76417514892967 1006.0035514783909 469.9092132572016Q998.3197431202502 471.0843839472702 991.6604425431949 471.0843839472702L991.6604425431949 471.0843839472702Q982.8617286585788 470.9638536200837 974.9067270642684 468.8545728943196Q966.9818580517547 466.74529216855547 960.8649439470387 462.07474199007777Q954.7781624241193 457.40419181160007 951.1923851903202 449.90117894423906Q947.5764753747246 442.3680334950815 947.5764753747246 431.4600388847013L947.5764753747246 431.4600388847013L947.5764753747246 406.66092406607453Q947.5764753747246 396.6267743277966 949.9569493366585 389.60588276918173Q952.3374232985923 382.6151237923635 956.1642611867644 377.9747061956824Q959.9910990749363 373.3041560172047 964.752046998804 370.7127539826945Q969.5129949226716 368.12135194818427 974.3944731737257 366.8557835127258Q979.2458188429832 365.5600824954707 983.6451757852913 365.2587566775044Q988.0445327275993 364.92729827774144 991.2385863980421 364.92729827774144L991.2385863980421 364.92729827774144Q1001.9356529358458 364.92729827774144 1009.4989309668001 366.8557835127258Q1017.0923415795509 368.7541361659135 1022.1546153213848 371.82765950916985Q1027.2470216450156 374.90118285242613 1030.2000146610853 378.90881623137795Q1033.1831402589514 382.9465821921264 1034.6596367669863 387.22540880724796Q1036.1361332750216 391.5343680041661 1036.5579894201742 395.9337249464741Q1036.9798455653272 400.33308188878215 1036.9798455653272 404.1297871951576L1036.9798455653272 404.1297871951576ZM979.7882053153226 400.754938033935L979.7882053153226 408.16755315590603L1006.2747447145607 408.16755315590603Q1006.2747447145607 403.1655445776654 1006.0035514783909 399.3085741076967Q1005.7323582422214 395.451603637728 1004.4065246431695 392.79993643962456Q1003.0806910441179 390.14826924152106 1000.2783609370312 388.7621704788761Q997.4760308299446 387.4062042980277 992.2932267609242 387.4062042980277L992.2932267609242 387.4062042980277Q987.9541349822093 387.4062042980277 985.4531306930891 388.7621704788761Q982.9822589857654 390.14826924152106 981.6865579685102 392.2274173854886Q980.4209895330519 394.27643294765943 980.1196637150855 396.6267743277966Q979.7882053153226 398.9469831261371 979.7882053153226 400.754938033935L979.7882053153226 400.754938033935ZM1086.789003275157 392.89033418501447L1086.789003275157 392.89033418501447Q1086.789003275157 395.0297474925752 1088.175102037802 396.837702400373Q1089.5310682186505 398.6155247263742 1091.911542180584 400.2728167251889Q1094.2920161425182 401.8999761422069 1097.4258046493674 403.49700297742834Q1100.559593156217 405.09402981264975 1103.9344423174398 406.66092406607453L1103.9344423174398 406.66092406607453Q1109.1473789682568 409.2221935187881 1114.5411111098538 412.1450539530612Q1119.9348432514503 415.03778180553775 1124.3944653573517 418.9550174390997Q1128.854087463253 422.87225307266164 1131.6564175703397 428.02492455988545Q1134.4587476774263 433.14746346531257 1134.4587476774263 440.1382224421309L1134.4587476774263 440.1382224421309Q1134.4587476774263 446.49619720121984 1132.5905276060353 451.37767545227393Q1130.7524401164405 456.2591537033281 1127.6789167731845 459.8147983553305Q1124.605393429928 463.34031042553625 1120.5374948873832 465.6906518056734Q1116.4394637630412 468.01086060401394 1111.9497090753434 469.39695936665896Q1107.4298218058489 470.7529255475073 1102.7894042091675 471.3555771834399Q1098.1188540306903 471.9280962375759 1093.990690324552 471.9280962375759L1093.990690324552 471.9280962375759Q1085.8247606576647 471.9280962375759 1079.798244298339 470.5419974749309Q1073.7415953572163 469.1860312940825 1069.4025035785012 466.8959550775386Q1065.0634117997865 464.6360114427913 1062.2610816927 461.7131510085182Q1059.4587515856133 458.79029057424503 1057.8617247503917 455.62636948559884Q1056.2646979151705 452.432315815156 1055.6319136974412 449.3286598901031Q1054.9991294797119 446.19487138325354 1054.9991294797119 443.5432041851501L1054.9991294797119 443.5432041851501Q1054.9991294797119 437.1852294260611 1058.5547741317146 434.2322364099913Q1062.1104187837168 431.24911081212485 1069.4025035785012 431.24911081212485L1069.4025035785012 431.24911081212485Q1074.7058379747082 431.24911081212485 1078.1108197177273 434.1117060828048Q1081.48566887895 436.97430135348463 1081.6965969515263 443.33227611257365L1081.6965969515263 443.33227611257365Q1081.817127278713 445.44155683833776 1082.9019002233917 446.70712527379624Q1084.0168057498672 448.0028262910514 1085.7644954940715 448.78627341776377Q1087.5121852382763 449.5697205444761 1089.6515985458368 449.8409137806458Q1091.760879271601 450.11210701681546 1093.7797622519752 450.11210701681546L1093.7797622519752 450.11210701681546Q1097.9079259581135 450.11210701681546 1100.4993279926239 447.94256112745813Q1103.0907300271342 445.7730152381007 1103.0907300271342 442.2776357496916L1103.0907300271342 442.2776357496916Q1103.0907300271342 439.2945101518252 1101.3430402829295 436.70310811731497Q1099.5953505387251 434.1117060828048 1096.732755268045 431.88189502985415Q1093.8701599973651 429.6520839769035 1090.224117599973 427.6030684147326Q1086.5780752025807 425.52392027076513 1082.7512373144086 423.414639545001L1082.7512373144086 423.414639545001Q1077.990289390541 420.88350267408407 1073.1690763030801 418.0209074034042Q1068.3478632156193 415.1583121327243 1064.4306275820572 411.66293264431516Q1060.5133919484952 408.16755315590603 1058.0726528229684 403.768196213598Q1055.6319136974412 399.36883927128997 1055.6319136974412 393.76417905711673L1055.6319136974412 393.76417905711673Q1055.6319136974412 385.47771906304337 1058.3438460591378 379.9333240124634Q1061.0557784208345 374.35879638008674 1066.2385824898552 370.9236820552709Q1071.4213865588754 367.48856773045503 1078.8942668444397 365.9819386406235Q1086.367147130004 364.50544213258866 1095.8890429777393 364.29451406001226L1095.8890429777393 364.29451406001226L1097.5764675583505 364.29451406001226Q1106.1642533703903 364.29451406001226 1112.1606371479197 365.77101056804713Q1118.1268883436524 367.27763965787864 1122.104389140808 369.6581136198124Q1126.0818899379628 372.03858758174624 1128.371966154507 374.991580597816Q1130.6319097892542 377.9747061956824 1131.7468153157297 380.9879643753454Q1132.8617208422047 384.0012225550085 1133.1329140783746 386.7734200802985Q1133.404107314544 389.5154850237918 1133.404107314544 391.41383767697954L1133.404107314544 391.41383767697954Q1133.404107314544 394.60789134742237 1132.0782737154923 396.6569069095932Q1130.7524401164405 398.73605505356073 1128.5828942270832 399.94135832542594Q1126.413348337726 401.1767941790878 1123.641150812436 401.65891548783384Q1120.8990858689426 402.1109042147833 1117.915960271076 402.23143454196986L1117.915960271076 402.23143454196986Q1115.3848234001593 402.23143454196986 1113.3056752561915 401.3877222516642Q1111.256659694021 400.54400996135854 1109.780163185986 399.2483089441034Q1108.2735340961544 397.98274050864495 1107.490086969442 396.38571367342354Q1106.7066398427296 394.81881941999876 1106.7066398427296 393.3423229119639L1106.7066398427296 393.3423229119639Q1106.4957117701533 389.30455695121543 1103.4824535904904 387.19527622545127Q1100.4390628290307 385.0558629178905 1096.0999710503156 385.0558629178905L1096.0999710503156 385.0558629178905Q1094.2920161425182 385.0558629178905 1092.6648567254997 385.44758648124673Q1091.0075647266854 385.8091774628063 1089.6817311276336 386.7131549167052Q1088.3860301103787 387.6171323706041 1087.5724504018694 389.09362887863904Q1086.789003275157 390.5701253866739 1086.789003275157 392.89033418501447ZM1169.6234706340938 365.1382263503179L1211.5680244950036 365.1382263503179Q1214.5511500928696 365.1382263503179 1218.0465295812787 365.6806128226572Q1221.5419090696878 366.22299929499655 1224.4346369221644 367.6392306394382Q1227.3574973564378 369.0554619838798 1229.3161151732188 371.67699660018667Q1231.2747329899994 374.26839863469684 1231.2747329899994 378.2760320136487L1231.2747329899994 378.2760320136487Q1231.2747329899994 380.0839869214465 1230.7022139358637 381.89194182924433Q1230.0995622999308 383.6998967370422 1229.2558500096252 385.53798422663664Q1228.4121377193196 387.4062042980277 1227.417762520031 389.1840266240289Q1226.3932547389454 390.99198153182675 1225.5495424486398 392.679406112438L1225.5495424486398 392.679406112438L1188.6973949113608 444.1759884028793L1211.9898806401561 444.1759884028793Q1215.696188201142 444.1759884028793 1219.2518328531442 444.53757938443886Q1222.8074775051464 444.92930294779507 1225.5495424486398 446.28526912864345Q1228.3217399739297 447.67136789128847 1230.0091645545413 450.3230350893919Q1231.6965891351524 452.97470228749535 1231.6965891351524 457.52472213878656L1231.6965891351524 457.52472213878656Q1231.6965891351524 461.9843442446878 1230.0091645545413 464.666144024588Q1228.3217399739297 467.3780763862847 1225.5495424486398 468.79430773072636Q1222.8074775051464 470.24067165696454 1219.2518328531442 470.66252780211744Q1215.696188201142 471.0843839472702 1211.9898806401561 471.0843839472702L1211.9898806401561 471.0843839472702L1170.256254851823 471.0843839472702Q1167.092333763177 471.0843839472702 1163.596954274768 470.66252780211744Q1160.1015747863585 470.24067165696454 1157.1184491884924 468.8545728943196Q1154.1654561724226 467.4684741316746 1152.236970937438 464.93733726075766Q1150.3386182842505 462.4062003898407 1150.3386182842505 458.1575063565158L1150.3386182842505 458.1575063565158Q1150.3386182842505 454.36080105014037 1152.2068383556416 450.53396316196836Q1154.0449258452359 446.70712527379624 1156.2747368981868 443.5432041851501L1156.2747368981868 443.5432041851501L1192.9159563628891 391.8356938221324L1169.6234706340938 391.8356938221324Q1165.9171630731084 391.8356938221324 1162.4217835846994 391.4741028405728Q1158.9264040962903 391.11251185901324 1156.1240739892032 389.7264130963682Q1153.3217438821166 388.34031433372326 1151.604186719709 385.74891229921303Q1149.9167621390975 383.1575102647028 1149.9167621390975 378.69788815880156L1149.9167621390975 378.69788815880156Q1149.9167621390975 374.14786830751035 1151.604186719709 371.4962011094069Q1153.3217438821166 368.8445339113034 1156.1240739892032 367.42830256686176Q1158.9264040962903 365.9819386406235 1162.4217835846994 365.5600824954707Q1165.9171630731084 365.1382263503179 1169.6234706340938 365.1382263503179L1169.6234706340938 365.1382263503179ZM1341.6503801110566 402.8642187596991L1341.6503801110566 446.9180533463727Q1341.6503801110566 451.4982057794605 1341.1381262205136 455.83729755817524Q1340.5957397481748 460.17638933689 1338.84805000397 463.55123849811264Q1337.1003602597652 466.95622024113186 1333.876174007526 469.00523580330275Q1330.6519877552864 471.0843839472702 1325.1377252865032 471.0843839472702L1325.1377252865032 471.0843839472702Q1319.7439931449062 471.0843839472702 1316.5499394744634 469.00523580330275Q1313.3860183858174 466.95622024113186 1311.6684612234094 463.55123849811264Q1309.9810366427982 460.17638933689 1309.498915334052 455.83729755817524Q1309.0469266071027 451.4982057794605 1309.0469266071027 446.9180533463727L1309.0469266071027 446.9180533463727L1309.0469266071027 405.60628370319245Q1309.0469266071027 402.65329068712265 1308.7757333709328 399.79069541644276Q1308.5045401347634 396.9281001457629 1307.540297517271 394.75855425640555Q1306.6061874815755 392.5890083670481 1304.7379674101844 391.2631747679964Q1302.8998799205901 389.93734116894467 1299.7058262501473 389.93734116894467L1299.7058262501473 389.93734116894467Q1295.3667344714322 389.93734116894467 1292.7150672733287 392.79993643962456Q1290.0634000752252 395.66253171030445 1288.5266384035972 400.63440770674845Q1286.9898767319692 405.60628370319245 1286.4776228414262 412.3559820256377Q1285.9352363690869 419.0755477662862 1285.9352363690869 426.7894887062236L1285.9352363690869 426.7894887062236L1285.9352363690869 446.9180533463727Q1285.9352363690869 451.4982057794605 1285.4229824785443 455.83729755817524Q1284.880596006205 460.17638933689 1283.1329062620002 463.55123849811264Q1281.385216517796 466.95622024113186 1278.1610302655563 469.00523580330275Q1274.936844013317 471.0843839472702 1269.4225815445334 471.0843839472702L1269.4225815445334 471.0843839472702Q1263.99871682114 471.0843839472702 1260.834795732494 469.00523580330275Q1257.6708746438476 466.95622024113186 1255.9533174814396 463.55123849811264Q1254.2658929008285 460.17638933689 1253.7837715920823 455.83729755817524Q1253.3016502833361 451.4982057794605 1253.3016502833361 446.9180533463727L1253.3016502833361 446.9180533463727L1253.3016502833361 389.09362887863904Q1253.3016502833361 384.5436090273478 1253.6331086830992 380.2346498304297Q1253.9344345010659 375.95582321530816 1255.531461336287 372.6111066358822Q1257.1284881715083 369.2663900564562 1260.3526744237479 367.21737449428537Q1263.5768606759875 365.1382263503179 1269.4225815445334 365.1382263503179L1269.4225815445334 365.1382263503179Q1275.2381698312834 365.1382263503179 1278.5226212471161 367.0968441670989Q1281.807072662949 369.0554619838798 1283.4643646617633 371.82765950916985Q1285.0915240787813 374.5697244526632 1285.5133802239343 377.6432477959195Q1285.9352363690869 380.71677113917576 1285.9352363690869 382.9465821921264L1285.9352363690869 382.9465821921264Q1286.7789486593924 379.87305884887013 1288.5869035671903 376.70913776022394Q1290.3948584749883 373.5150840897811 1293.197188582075 370.98394721886416Q1295.9995186891615 368.42267776615057 1299.9167543227236 366.7955183491325Q1303.8339899562857 365.1382263503179 1309.0469266071027 365.1382263503179L1309.0469266071027 365.1382263503179Q1314.8625148938522 365.1382263503179 1320.6781031806017 367.0667115853022Q1326.523824049148 368.96506423848996 1331.164241645829 373.42468634439126Q1335.8347918243066 377.8541758684959 1338.75765225858 385.0558629178905Q1341.6503801110566 392.2575499672852 1341.6503801110566 402.8642187596991L1341.6503801110566 402.8642187596991ZM1456.2747212654385 402.8642187596991L1456.2747212654385 446.9180533463727Q1456.2747212654385 451.4982057794605 1455.7624673748956 455.83729755817524Q1455.2200809025567 460.17638933689 1453.472391158352 463.55123849811264Q1451.7247014141471 466.95622024113186 1448.500515161908 469.00523580330275Q1445.2763289096683 471.0843839472702 1439.762066440885 471.0843839472702L1439.762066440885 471.0843839472702Q1434.368334299288 471.0843839472702 1431.1742806288453 469.00523580330275Q1428.0103595401993 466.95622024113186 1426.2928023777913 463.55123849811264Q1424.6053777971802 460.17638933689 1424.123256488434 455.83729755817524Q1423.6712677614842 451.4982057794605 1423.6712677614842 446.9180533463727L1423.6712677614842 446.9180533463727L1423.6712677614842 405.60628370319245Q1423.6712677614842 402.65329068712265 1423.4000745253147 399.79069541644276Q1423.1288812891448 396.9281001457629 1422.164638671653 394.75855425640555Q1421.2305286359574 392.5890083670481 1419.3623085645663 391.2631747679964Q1417.5242210749716 389.93734116894467 1414.3301674045288 389.93734116894467L1414.3301674045288 389.93734116894467Q1409.9910756258141 389.93734116894467 1407.3394084277106 392.79993643962456Q1404.6877412296071 395.66253171030445 1403.150979557979 400.63440770674845Q1401.614217886351 405.60628370319245 1401.101963995808 412.3559820256377Q1400.5595775234688 419.0755477662862 1400.5595775234688 426.7894887062236L1400.5595775234688 426.7894887062236L1400.5595775234688 446.9180533463727Q1400.5595775234688 451.4982057794605 1400.0473236329262 455.83729755817524Q1399.504937160587 460.17638933689 1397.7572474163821 463.55123849811264Q1396.0095576721778 466.95622024113186 1392.7853714199382 469.00523580330275Q1389.5310525859022 471.0843839472702 1384.0469226989153 471.0843839472702L1384.0469226989153 471.0843839472702Q1378.623057975522 471.0843839472702 1375.459136886876 469.00523580330275Q1372.2650832164331 466.95622024113186 1370.5776586358215 463.55123849811264Q1368.8902340552104 460.17638933689 1368.4081127464642 455.83729755817524Q1367.925991437718 451.4982057794605 1367.925991437718 446.9180533463727L1367.925991437718 446.9180533463727L1367.925991437718 389.09362887863904Q1367.925991437718 384.5436090273478 1368.257449837481 380.2346498304297Q1368.5587756554473 375.95582321530816 1370.155802490669 372.6111066358822Q1371.7528293258902 369.2663900564562 1374.9770155781298 367.21737449428537Q1378.201201830369 365.1382263503179 1384.0469226989153 365.1382263503179L1384.0469226989153 365.1382263503179Q1389.8625109856653 365.1382263503179 1393.1469624014976 367.0968441670989Q1396.4314138173304 369.0554619838798 1398.0585732343484 371.82765950916985Q1399.7158652331632 374.5697244526632 1400.1377213783162 377.6432477959195Q1400.5595775234688 380.71677113917576 1400.5595775234688 382.9465821921264L1400.5595775234688 382.9465821921264Q1401.4032898137748 379.87305884887013 1403.2112447215723 376.70913776022394Q1405.0191996293702 373.5150840897811 1407.8215297364568 370.98394721886416Q1410.6238598435434 368.42267776615057 1414.5410954771055 366.7955183491325Q1418.4583311106671 365.1382263503179 1423.6712677614842 365.1382263503179L1423.6712677614842 365.1382263503179Q1429.4868560482341 365.1382263503179 1435.3024443349836 367.0667115853022Q1441.14816520353 368.96506423848996 1445.7885828002113 373.42468634439126Q1450.4591329786886 377.8541758684959 1453.381993412962 385.0558629178905Q1456.2747212654385 392.2575499672852 1456.2747212654385 402.8642187596991L1456.2747212654385 402.8642187596991Z " fill="#A04EF" transform="matrix(0.6008481699508437,0,0,0.6008481699508438,0,61.506458712202814)"/></g></svg>